{
	"asset":{
		"version":"2.0",
		"generator":"Sketchfab-16.72.0",
		"copyright":""
	},
	"scenes":[{
		"nodes":[0]
	}],
	"bufferViews":[{
		"buffer":0,
		"byteOffset":0,
		"byteLength":2112,
		"target":34963
	},
	{
		"buffer":0,
		"byteOffset":2112,
		"byteLength":33792,
		"target":34962,
		"byteStride":32
	}],
	"nodes":[{
		"name":"chair_3",
		"mesh":0
	}],
	"meshes":[{
		"name":"chair_3",
		"primitives":[{
			"attributes":{
				"POSITION":1,
				"NORMAL":2,
				"TEXCOORD_0":3
			},
			"indices":0
		}]
	}],
	"accessors":[{
		"bufferView":0,
		"type":"SCALAR",
		"componentType":5123,
		"count":1056,
		"byteOffset":0,
		"min":[0],
		"max":[1055]
	},
	{
		"bufferView":1,
		"type":"VEC3",
		"componentType":5126,
		"count":1056,
		"byteOffset":0,
		"min":[-0.32999998331069949,
		-9.313225746154785e-9,
		-0.37709906697273257],
		"max":[0.32999998331069949,
		0.8357835412025452,
		0.4000000059604645]
	},
	{
		"bufferView":1,
		"type":"VEC3",
		"componentType":5126,
		"count":1056,
		"byteOffset":12,
		"min":[-1.0,
		-1.0,
		-1.0],
		"max":[1.0,
		1.0,
		1.0]
	},
	{
		"bufferView":1,
		"type":"VEC2",
		"componentType":5126,
		"count":1056,
		"byteOffset":24,
		"min":[0.014177083969116211,
		0.035323143005371097],
		"max":[0.9554290771484375,
		0.95269775390625]
	}],
	"buffers":[{
		"uri":"data:application/octet-stream;base64,",
		"byteLength":35904
	}]
}