{
	"asset":{
		"version":"2.0",
		"generator":"Sketchfab-16.72.0",
		"copyright":""
	},
	"scenes":[{
		"nodes":[0]
	}],
	"bufferViews":[{
		"buffer":0,
		"byteOffset":0,
		"byteLength":2880,
		"target":34963
	},
	{
		"buffer":0,
		"byteOffset":2880,
		"byteLength":46080,
		"target":34962,
		"byteStride":32
	}],
	"nodes":[{
		"name":"chair_1",
		"mesh":0
	}],
	"meshes":[{
		"name":"chair_1",
		"primitives":[{
			"attributes":{
				"POSITION":1,
				"NORMAL":2,
				"TEXCOORD_0":3
			},
			"indices":0
		}]
	}],
	"accessors":[{
		"bufferView":0,
		"type":"SCALAR",
		"componentType":5123,
		"count":1440,
		"byteOffset":0,
		"min":[0],
		"max":[1439]
	},
	{
		"bufferView":1,
		"type":"VEC3",
		"componentType":5126,
		"count":1440,
		"byteOffset":0,
		"min":[-0.32254061102867129,
		-4.806229636500348e-9,
		-0.3376530706882477],
		"max":[0.32254061102867129,
		1.0051246881484986,
		0.2878655195236206]
	},
	{
		"bufferView":1,
		"type":"VEC3",
		"componentType":5126,
		"count":1440,
		"byteOffset":12,
		"min":[-0.9991959929466248,
		-1.0,
		-1.0],
		"max":[0.9991959929466248,
		1.0,
		0.9883295893669128]
	},
	{
		"bufferView":1,
		"type":"VEC2",
		"componentType":5126,
		"count":1440,
		"byteOffset":24,
		"min":[0.009999752044677735,
		0.009999752044677735],
		"max":[0.989990234375,
		0.91558837890625]
	}],
	"buffers":[{
		"uri":"data:application/octet-stream;base64,",
		"byteLength":48960
	}]
}