{
	"asset":{
		"version":"2.0",
		"generator":"Sketchfab-16.72.0",
		"copyright":""
	},
	"scenes":[{
		"nodes":[0]
	}],
	"bufferViews":[{
		"buffer":0,
		"byteOffset":0,
		"byteLength":4824,
		"target":34963
	},
	{
		"buffer":0,
		"byteOffset":4824,
		"byteLength":77184,
		"target":34962,
		"byteStride":32
	}],
	"nodes":[{
		"name":"chair_2",
		"mesh":0
	}],
	"meshes":[{
		"name":"chair_2",
		"primitives":[{
			"attributes":{
				"POSITION":1,
				"NORMAL":2,
				"TEXCOORD_0":3
			},
			"indices":0
		}]
	}],
	"accessors":[{
		"bufferView":0,
		"type":"SCALAR",
		"componentType":5123,
		"count":2412,
		"byteOffset":0,
		"min":[0],
		"max":[2411]
	},
	{
		"bufferView":1,
		"type":"VEC3",
		"componentType":5126,
		"count":2412,
		"byteOffset":0,
		"min":[-0.2707725763320923,
		-0.020546354353427888,
		-0.2577952742576599],
		"max":[0.2707725465297699,
		0.9919067621231079,
		0.3264913558959961]
	},
	{
		"bufferView":1,
		"type":"VEC3",
		"componentType":5126,
		"count":2412,
		"byteOffset":12,
		"min":[-0.9972441792488098,
		-1.0,
		-0.9999970197677612],
		"max":[0.9972441792488098,
		1.0,
		0.9999951124191284]
	},
	{
		"bufferView":1,
		"type":"VEC2",
		"componentType":5126,
		"count":2412,
		"byteOffset":24,
		"min":[0.009999990463256836,
		0.009999752044677735],
		"max":[0.9466094970703125,
		0.989990234375]
	}],
	"buffers":[{
		"uri":"data:application/octet-stream;base64,",
		"byteLength":82008
	}]
}