{
	"asset":{
		"version":"2.0",
		"generator":"Sketchfab-16.72.0",
		"copyright":""
	},
	"scenes":[{
		"nodes":[0]
	}],
	"bufferViews":[{
		"buffer":0,
		"byteOffset":0,
		"byteLength":1392,
		"target":34963
	},
	{
		"buffer":0,
		"byteOffset":1392,
		"byteLength":22272,
		"target":34962,
		"byteStride":32
	}],
	"nodes":[{
		"name":"floor_lamp_1",
		"mesh":0
	}],
	"meshes":[{
		"name":"floor_lamp_1",
		"primitives":[{
			"attributes":{
				"POSITION":1,
				"NORMAL":2,
				"TEXCOORD_0":3
			},
			"indices":0
		}]
	}],
	"accessors":[{
		"bufferView":0,
		"type":"SCALAR",
		"componentType":5123,
		"count":696,
		"byteOffset":0,
		"min":[0],
		"max":[695]
	},
	{
		"bufferView":1,
		"type":"VEC3",
		"componentType":5126,
		"count":696,
		"byteOffset":0,
		"min":[-0.2950615882873535,
		0.0,
		-0.32627588510513308],
		"max":[0.2950615882873535,
		1.5500001907348633,
		0.32627588510513308]
	},
	{
		"bufferView":1,
		"type":"VEC3",
		"componentType":5126,
		"count":696,
		"byteOffset":12,
		"min":[-1.0,
		-1.0,
		-1.0],
		"max":[0.9978092312812805,
		1.0,
		1.0]
	},
	{
		"bufferView":1,
		"type":"VEC2",
		"componentType":5126,
		"count":696,
		"byteOffset":24,
		"min":[0.009999752044677735,
		0.009999752044677735],
		"max":[0.9899139404296875,
		0.989990234375]
	}],
	"buffers":[{
		"uri":"data:application/octet-stream;base64,",
		"byteLength":23664
	}]
}