{
	"asset":{
		"version":"2.0",
		"generator":"Sketchfab-16.72.0",
		"copyright":""
	},
	"scenes":[{
		"nodes":[0]
	}],
	"bufferViews":[{
		"buffer":0,
		"byteOffset":0,
		"byteLength":1752,
		"target":34963
	},
	{
		"buffer":0,
		"byteOffset":1752,
		"byteLength":28032,
		"target":34962,
		"byteStride":32
	}],
	"nodes":[{
		"name":"sofa_1",
		"mesh":0,
		"scale":[1.0,
		1.0,
		1.0],
		"translation":[0.0,
		0.019999999552965165,
		0.0],
		"rotation":[0.0,
		0.0,
		0.0,
		-1.0]
	}],
	"meshes":[{
		"name":"sofa_1",
		"primitives":[{
			"attributes":{
				"POSITION":1,
				"NORMAL":2,
				"TEXCOORD_0":3
			},
			"indices":0
		}]
	}],
	"accessors":[{
		"bufferView":0,
		"type":"SCALAR",
		"componentType":5123,
		"count":876,
		"byteOffset":0,
		"min":[0],
		"max":[875]
	},
	{
		"bufferView":1,
		"type":"VEC3",
		"componentType":5126,
		"count":876,
		"byteOffset":0,
		"min":[-0.5229335427284241,
		-0.019999999552965165,
		-0.40000006556510928],
		"max":[0.5229335427284241,
		0.8600000143051148,
		0.40000006556510928]
	},
	{
		"bufferView":1,
		"type":"VEC3",
		"componentType":5126,
		"count":876,
		"byteOffset":12,
		"min":[-0.9894132018089294,
		-1.0,
		-1.0],
		"max":[0.9894132018089294,
		1.0,
		1.0]
	},
	{
		"bufferView":1,
		"type":"VEC2",
		"componentType":5126,
		"count":876,
		"byteOffset":24,
		"min":[0.009999990463256836,
		0.009999752044677735],
		"max":[0.97332763671875,
		0.989990234375]
	}],
	"buffers":[{
		"uri":"data:application/octet-stream;base64,",
		"byteLength":29784
	}]
}