{
	"asset":{
		"version":"2.0",
		"generator":"Sketchfab-16.72.0",
		"copyright":""
	},
	"scenes":[{
		"nodes":[0]
	}],
	"bufferViews":[{
		"buffer":0,
		"byteOffset":0,
		"byteLength":1920,
		"target":34963
	},
	{
		"buffer":0,
		"byteOffset":1920,
		"byteLength":30720,
		"target":34962,
		"byteStride":32
	}],
	"nodes":[{
		"name":"sofa_2",
		"mesh":0
	}],
	"meshes":[{
		"name":"sofa_2",
		"primitives":[{
			"attributes":{
				"POSITION":1,
				"NORMAL":2,
				"TEXCOORD_0":3
			},
			"indices":0
		}]
	}],
	"accessors":[{
		"bufferView":0,
		"type":"SCALAR",
		"componentType":5123,
		"count":960,
		"byteOffset":0,
		"min":[0],
		"max":[959]
	},
	{
		"bufferView":1,
		"type":"VEC3",
		"componentType":5126,
		"count":960,
		"byteOffset":0,
		"min":[-0.8231778740882874,
		0.0,
		-0.40000006556510928],
		"max":[0.8231778740882874,
		0.8799999952316284,
		0.40000006556510928]
	},
	{
		"bufferView":1,
		"type":"VEC3",
		"componentType":5126,
		"count":960,
		"byteOffset":12,
		"min":[-0.9894132018089294,
		-1.0,
		-1.0],
		"max":[0.9894132018089294,
		1.0,
		1.0]
	},
	{
		"bufferView":1,
		"type":"VEC2",
		"componentType":5126,
		"count":960,
		"byteOffset":24,
		"min":[0.009999990463256836,
		0.009999752044677735],
		"max":[0.97332763671875,
		0.989990234375]
	}],
	"buffers":[{
		"uri":"data:application/octet-stream;base64,",
		"byteLength":32640
	}]
}