{
	"asset":{
		"version":"2.0",
		"generator":"Sketchfab-16.72.0",
		"copyright":""
	},
	"scenes":[{
		"nodes":[0]
	}],
	"bufferViews":[{
		"buffer":0,
		"byteOffset":0,
		"byteLength":2088,
		"target":34963
	},
	{
		"buffer":0,
		"byteOffset":2088,
		"byteLength":33408,
		"target":34962,
		"byteStride":32
	}],
	"nodes":[{
		"name":"sofa_3",
		"mesh":0
	}],
	"meshes":[{
		"name":"sofa_3",
		"primitives":[{
			"attributes":{
				"POSITION":1,
				"NORMAL":2,
				"TEXCOORD_0":3
			},
			"indices":0
		}]
	}],
	"accessors":[{
		"bufferView":0,
		"type":"SCALAR",
		"componentType":5123,
		"count":1044,
		"byteOffset":0,
		"min":[0],
		"max":[1043]
	},
	{
		"bufferView":1,
		"type":"VEC3",
		"componentType":5126,
		"count":1044,
		"byteOffset":0,
		"min":[-1.1272764205932618,
		0.0,
		-0.40000009536743166],
		"max":[1.1272764205932618,
		0.8800000548362732,
		0.40000009536743166]
	},
	{
		"bufferView":1,
		"type":"VEC3",
		"componentType":5126,
		"count":1044,
		"byteOffset":12,
		"min":[-0.9894132018089294,
		-1.0,
		-1.0],
		"max":[0.9894132018089294,
		1.0,
		1.0]
	},
	{
		"bufferView":1,
		"type":"VEC2",
		"componentType":5126,
		"count":1044,
		"byteOffset":24,
		"min":[0.009999990463256836,
		0.009999752044677735],
		"max":[0.9654693603515625,
		0.989990234375]
	}],
	"buffers":[{
		"uri":"data:application/octet-stream;base64,",
		"byteLength":35496
	}]
}