{
	"asset":{
		"version":"2.0",
		"generator":"Sketchfab-16.72.0",
		"copyright":""
	},
	"scenes":[{
		"nodes":[0]
	}],
	"bufferViews":[{
		"buffer":0,
		"byteOffset":0,
		"byteLength":648,
		"target":34963
	},
	{
		"buffer":0,
		"byteOffset":648,
		"byteLength":10368,
		"target":34962,
		"byteStride":32
	}],
	"nodes":[{
		"name":"table_3",
		"mesh":0
	}],
	"meshes":[{
		"name":"table_3",
		"primitives":[{
			"attributes":{
				"POSITION":1,
				"NORMAL":2,
				"TEXCOORD_0":3
			},
			"indices":0
		}]
	}],
	"accessors":[{
		"bufferView":0,
		"type":"SCALAR",
		"componentType":5123,
		"count":324,
		"byteOffset":0,
		"min":[0],
		"max":[323]
	},
	{
		"bufferView":1,
		"type":"VEC3",
		"componentType":5126,
		"count":324,
		"byteOffset":0,
		"min":[-0.25,
		-1.37772746100413e-17,
		-0.25],
		"max":[0.25,
		0.5,
		0.25]
	},
	{
		"bufferView":1,
		"type":"VEC3",
		"componentType":5126,
		"count":324,
		"byteOffset":12,
		"min":[-1.0,
		-1.0,
		-1.0],
		"max":[1.0,
		1.0,
		1.0]
	},
	{
		"bufferView":1,
		"type":"VEC2",
		"componentType":5126,
		"count":324,
		"byteOffset":24,
		"min":[0.009999990463256836,
		0.009999752044677735],
		"max":[0.956878662109375,
		0.989990234375]
	}],
	"buffers":[{
		"uri":"data:application/octet-stream;base64,",
		"byteLength":11016
	}]
}